<?xml version="1.0" standalone="no"?><!DOCTYPE svg PUBLIC "-//W3C//DTD SVG 1.1//EN" "http://www.w3.org/Graphics/SVG/1.1/DTD/svg11.dtd"><svg t="1487131773535" class="icon" style="" viewBox="0 0 1024 1024" version="1.1" xmlns="http://www.w3.org/2000/svg" p-id="1013" xmlns:xlink="http://www.w3.org/1999/xlink" width="16" height="16"><defs><style type="text/css"></style></defs><path d="M682.002 505.905c-0.212 5.273-2.461 9.984-5.976 13.397l-266.006 266.008c-3.438 3.438-8.558 5.705-13.129 5.705s-9.728-2.304-13.129-5.705l-28.562-28.562c-3.488-3.355-5.667-8.049-5.707-13.252 0.214-5.15 2.462-9.86 5.977-13.274l224.314-224.317-224.585-224.585c-3.438-3.438-5.705-8.558-5.705-13.129s2.304-9.728 5.705-13.129l28.562-28.562c3.438-3.438 8.558-5.705 13.129-5.705s9.728 2.304 13.129 5.705l266.277 266.277c3.452 3.463 5.617 8.212 5.714 13.465z" fill="#2c2c2c" p-id="1014"></path></svg>