<?xml version="1.0" standalone="no"?><!DOCTYPE svg PUBLIC "-//W3C//DTD SVG 1.1//EN" "http://www.w3.org/Graphics/SVG/1.1/DTD/svg11.dtd"><svg t="1487122629487" class="icon" style="" viewBox="0 0 1024 1024" version="1.1" xmlns="http://www.w3.org/2000/svg" p-id="7087" xmlns:xlink="http://www.w3.org/1999/xlink" width="16" height="16"><defs><style type="text/css"></style></defs><path d="M767.584 530.561c0.129-0.263 0.255-0.528 0.381-0.794 0.208-0.44 0.412-0.878 0.605-1.321 0.063-0.147 0.124-0.296 0.186-0.443 0.237-0.561 0.464-1.122 0.678-1.688 0.007-0.013 0.008-0.025 0.015-0.038 1.784-4.765 2.708-9.702 2.816-14.611 0.007-0.342 0.002-0.686 0.003-1.028-0.001-0.341 0.007-0.685-0.003-1.027-0.107-4.913-1.034-9.853-2.82-14.619-0.004-0.008-0.007-0.018-0.008-0.026-0.215-0.57-0.442-1.135-0.68-1.7-0.062-0.144-0.119-0.288-0.18-0.43-0.194-0.446-0.4-0.892-0.611-1.335-0.124-0.26-0.246-0.521-0.375-0.779-0.173-0.348-0.353-0.693-0.538-1.038-0.181-0.342-0.365-0.683-0.556-1.021-0.076-0.135-0.144-0.272-0.22-0.406-0.090-0.155-0.188-0.301-0.277-0.453-0.217-0.365-0.44-0.728-0.667-1.089-0.174-0.276-0.352-0.55-0.531-0.822-0.22-0.334-0.449-0.667-0.68-0.995-0.209-0.298-0.42-0.593-0.636-0.885-0.203-0.274-0.411-0.545-0.621-0.814-0.263-0.342-0.531-0.68-0.802-1.012-0.163-0.199-0.33-0.393-0.497-0.588-0.336-0.396-0.678-0.784-1.024-1.167-0.109-0.118-0.218-0.233-0.329-0.352-0.42-0.452-0.849-0.893-1.285-1.324-0.044-0.043-0.091-0.087-0.135-0.132-2.98-2.915-6.31-5.366-9.893-7.31l-400.425-231.184c-0.035-0.020-0.070-0.037-0.103-0.056-0.613-0.353-1.234-0.691-1.867-1.015-0.035-0.019-0.071-0.037-0.108-0.055-0.635-0.323-1.278-0.633-1.929-0.927-0.044-0.021-0.087-0.039-0.131-0.059-0.623-0.278-1.254-0.542-1.891-0.795-0.078-0.031-0.155-0.061-0.232-0.092-0.587-0.227-1.18-0.441-1.778-0.642-0.13-0.044-0.258-0.088-0.387-0.13-0.536-0.176-1.075-0.339-1.619-0.495-0.191-0.055-0.388-0.113-0.582-0.166-0.473-0.128-0.95-0.246-1.428-0.361-0.268-0.063-0.536-0.126-0.805-0.186-0.41-0.089-0.822-0.17-1.236-0.247-0.337-0.063-0.676-0.125-1.013-0.179-0.356-0.058-0.712-0.11-1.072-0.158-0.398-0.055-0.795-0.107-1.192-0.152-0.318-0.036-0.637-0.066-0.956-0.094-0.431-0.038-0.864-0.072-1.297-0.099-0.308-0.019-0.614-0.034-0.922-0.047-0.431-0.018-0.864-0.029-1.293-0.033-0.18-0.003-0.361-0.014-0.541-0.014-0.158 0-0.315 0.009-0.472 0.011-0.365 0.006-0.732 0.015-1.096 0.028-0.423 0.015-0.845 0.033-1.264 0.059-0.237 0.017-0.472 0.036-0.71 0.055-0.548 0.043-1.094 0.092-1.637 0.155-0.072 0.007-0.143 0.020-0.217 0.028-7.284 0.875-14.032 3.492-19.808 7.434-0.094 0.064-0.187 0.133-0.278 0.201-0.481 0.332-0.958 0.669-1.424 1.021-0.261 0.196-0.513 0.403-0.771 0.605-0.299 0.235-0.6 0.468-0.895 0.711-0.309 0.258-0.612 0.528-0.916 0.794-0.237 0.207-0.477 0.412-0.71 0.624-0.291 0.266-0.574 0.543-0.859 0.817-0.244 0.233-0.488 0.465-0.725 0.705-0.236 0.238-0.465 0.485-0.694 0.728-0.286 0.3-0.57 0.6-0.847 0.907-0.165 0.184-0.324 0.375-0.486 0.561-0.34 0.392-0.678 0.786-1.004 1.191-0.092 0.113-0.179 0.231-0.272 0.345-0.397 0.5-0.782 1.006-1.157 1.523-0.024 0.034-0.049 0.068-0.072 0.102-5.309 7.358-8.446 16.386-8.446 26.151v108.57c0 0.108 0 0.217 0 0.324v354.627c0 0.182 0.011 0.363 0.015 0.544 0.007 0.419 0.015 0.84 0.032 1.262 0.013 0.328 0.030 0.654 0.050 0.981 0.024 0.401 0.055 0.803 0.091 1.204 0.032 0.361 0.067 0.718 0.106 1.075 0.039 0.345 0.085 0.689 0.131 1.034 0.058 0.417 0.117 0.834 0.187 1.248 0.044 0.266 0.094 0.534 0.143 0.798 0.091 0.493 0.189 0.983 0.295 1.472 0.039 0.177 0.081 0.353 0.122 0.531 0.133 0.577 0.278 1.153 0.435 1.722 0.023 0.085 0.049 0.171 0.073 0.258 0.187 0.662 0.386 1.316 0.6 1.966 0.002 0.007 0.005 0.007 0.007 0.015 1.448 4.357 3.542 8.413 6.176 12.059 0.018 0.024 0.034 0.048 0.051 0.070 0.384 0.528 0.778 1.048 1.184 1.558 0.082 0.103 0.161 0.209 0.245 0.309 0.337 0.417 0.684 0.825 1.036 1.23 0.151 0.175 0.298 0.351 0.452 0.52 0.289 0.323 0.588 0.637 0.888 0.953 0.218 0.228 0.429 0.459 0.653 0.683 0.255 0.258 0.518 0.506 0.78 0.758 0.267 0.257 0.532 0.515 0.803 0.766 0.256 0.234 0.52 0.458 0.782 0.688 0.278 0.245 0.557 0.493 0.842 0.728 0.325 0.27 0.659 0.528 0.992 0.787 0.224 0.176 0.443 0.358 0.671 0.528 0.505 0.382 1.023 0.748 1.547 1.109 0.053 0.037 0.104 0.075 0.157 0.112 5.788 3.954 12.553 6.577 19.857 7.448 0.052 0.007 0.103 0.014 0.157 0.020 0.56 0.065 1.121 0.116 1.688 0.159 0.218 0.018 0.439 0.036 0.657 0.050 0.435 0.028 0.872 0.046 1.311 0.061 0.351 0.012 0.699 0.022 1.049 0.027 0.164 0.002 0.326 0.012 0.491 0.012 0.189 0 0.376-0.011 0.564-0.015 0.416-0.007 0.833-0.017 1.251-0.032 0.321-0.012 0.642-0.030 0.963-0.049 0.418-0.027 0.836-0.059 1.256-0.096 0.333-0.030 0.666-0.062 0.995-0.099 0.385-0.042 0.768-0.093 1.153-0.146 0.369-0.050 0.738-0.104 1.105-0.164 0.328-0.054 0.653-0.114 0.983-0.176 0.424-0.081 0.847-0.162 1.268-0.254 0.258-0.057 0.515-0.118 0.773-0.179 0.487-0.114 0.974-0.236 1.456-0.366 0.188-0.051 0.373-0.106 0.56-0.158 0.55-0.157 1.098-0.323 1.64-0.502 0.123-0.040 0.245-0.082 0.365-0.125 0.605-0.204 1.205-0.419 1.798-0.65 0.072-0.028 0.144-0.056 0.217-0.085 0.643-0.251 1.278-0.517 1.905-0.798 0.040-0.018 0.081-0.036 0.119-0.054 0.655-0.296 1.302-0.606 1.942-0.932 0.033-0.018 0.067-0.034 0.1-0.051 0.633-0.326 1.257-0.666 1.873-1.020 0.033-0.019 0.067-0.036 0.1-0.055l400.439-231.193c3.569-1.938 6.891-4.383 9.862-7.284 0.055-0.052 0.111-0.105 0.164-0.158 0.428-0.423 0.847-0.855 1.259-1.298 0.119-0.126 0.237-0.251 0.353-0.378 0.34-0.374 0.674-0.755 1.003-1.142 0.173-0.203 0.347-0.406 0.516-0.612 0.265-0.324 0.528-0.654 0.785-0.989 0.217-0.277 0.428-0.556 0.636-0.836 0.212-0.284 0.416-0.574 0.622-0.864 0.236-0.335 0.468-0.674 0.693-1.014 0.176-0.266 0.349-0.533 0.518-0.803 0.232-0.365 0.458-0.736 0.68-1.108 0.089-0.149 0.185-0.293 0.272-0.444 0.076-0.13 0.142-0.266 0.217-0.397 0.191-0.343 0.382-0.69 0.564-1.037 0.177-0.34 0.353-0.681 0.526-1.024z" p-id="7088"></path></svg>